<svg width="28" height="28" viewBox="0 0 28 28" fill="none" xmlns="http://www.w3.org/2000/svg">
<path d="M26.8334 22.1666H23.7265C23.2214 20.4855 21.6766 19.25 19.8334 19.25C17.9901 19.25 16.4465 20.4855 15.9402 22.1666H1.16665C0.522648 22.1666 0 22.6894 0 23.3334C0 23.9774 0.522648 24.5 1.16665 24.5H15.9401C16.4453 26.1811 17.99 27.4166 19.8333 27.4166C21.6766 27.4166 23.2201 26.1811 23.7264 24.5H26.8333C27.4784 24.5 27.9999 23.9774 27.9999 23.3334C27.9999 22.6894 27.4785 22.1666 26.8334 22.1666ZM19.8334 25.0833C18.8685 25.0833 18.0834 24.2982 18.0834 23.3334C18.0834 22.3685 18.8685 21.5834 19.8334 21.5834C20.7982 21.5834 21.5834 22.3685 21.5834 23.3334C21.5834 24.2982 20.7981 25.0833 19.8334 25.0833Z" fill="#F6F6F6"/>
<path d="M26.8334 3.49999H23.7265C23.2201 1.81884 21.6766 0.583344 19.8334 0.583344C17.9901 0.583344 16.4465 1.81884 15.9401 3.49999H1.16665C0.522648 3.49999 0 4.02264 0 4.66664C0 5.31064 0.522648 5.83329 1.16665 5.83329H15.9401C16.4465 7.51449 17.99 8.74999 19.8334 8.74999C21.6767 8.74999 23.2202 7.51449 23.7265 5.83334H26.8334C27.4785 5.83334 28 5.3107 28 4.6667C28 4.0227 27.4785 3.49999 26.8334 3.49999ZM19.8334 6.41664C18.8685 6.41664 18.0834 5.63149 18.0834 4.66664C18.0834 3.70179 18.8685 2.91664 19.8334 2.91664C20.7982 2.91664 21.5834 3.70179 21.5834 4.66664C21.5834 5.63149 20.7981 6.41664 19.8334 6.41664Z" fill="#F6F6F6"/>
<path d="M26.8334 12.8334H12.0599C11.5535 11.1522 10.01 9.91672 8.1667 9.91672C6.32341 9.91672 4.77985 11.1522 4.27355 12.8334H1.16665C0.522648 12.8334 0 13.356 0 14C0 14.644 0.522648 15.1667 1.16665 15.1667H4.2735C4.77985 16.8478 6.32335 18.0833 8.16665 18.0833C10.0099 18.0833 11.5535 16.8478 12.0598 15.1667H26.8333C27.4784 15.1667 27.9999 14.644 27.9999 14C28 13.356 27.4785 12.8334 26.8334 12.8334ZM8.16665 15.75C7.2018 15.75 6.41665 14.9649 6.41665 14C6.41665 13.0352 7.2018 12.25 8.16665 12.25C9.1315 12.25 9.91665 13.0352 9.91665 14C9.91665 14.9649 9.1315 15.75 8.16665 15.75Z" fill="#F6F6F6"/>
</svg>
