<svg width="100" height="100" viewBox="0 0 100 100" fill="none" xmlns="http://www.w3.org/2000/svg">
<g opacity="0.8">
<path d="M87.107 87.5244V92.577C87.107 95.5978 89.5561 98.0469 92.577 98.0469C95.5979 98.0469 98.0469 95.5978 98.0469 92.577V18.3594C98.0469 14.0447 94.549 10.5469 90.2344 10.5469H75H22.202H16.3719C12.0572 10.5469 8.55939 14.0447 8.55939 18.3594V87.5244H87.107Z" fill="white"/>
<path d="M87.1094 92.5781V87.5289L87.107 87.5244H1.95312V92.5781C1.95312 95.5984 4.40156 98.0469 7.42188 98.0469H92.577C89.5572 98.0463 87.1094 95.598 87.1094 92.5781Z" fill="#C7EAFF"/>
<path d="M97.9492 26.7578H8.69141V18.3594C8.69141 14.0447 12.1893 10.5469 16.5039 10.5469H90.1367C94.4514 10.5469 97.9492 14.0447 97.9492 18.3594V26.7578Z" fill="#BAEE83"/>
<path d="M44.1885 72.2656C41.1682 72.2656 38.7197 69.8172 38.7197 66.7969C38.7197 63.7766 41.1682 61.3281 44.1885 61.3281C47.2088 61.3281 49.6572 63.7766 49.6572 66.7969C49.6572 69.8172 47.2088 72.2656 44.1885 72.2656Z" fill="#A5DDFF"/>
<path d="M62.4176 72.2656C59.3973 72.2656 56.9489 69.8172 56.9489 66.7969C56.9489 63.7766 59.3973 61.3281 62.4176 61.3281C65.4379 61.3281 67.8864 63.7766 67.8864 66.7969C67.8864 69.8172 65.4379 72.2656 62.4176 72.2656Z" fill="#A5DDFF"/>
<path d="M80.6469 72.2656C77.6265 72.2656 75.1781 69.8172 75.1781 66.7969C75.1781 63.7766 77.6265 61.3281 80.6469 61.3281C83.6672 61.3281 86.1156 63.7766 86.1156 66.7969C86.1156 69.8172 83.6672 72.2656 80.6469 72.2656Z" fill="#FE6663"/>
<path d="M25.9594 51.9531C22.939 51.9531 20.4906 49.5047 20.4906 46.4844C20.4906 43.4641 22.939 41.0156 25.9594 41.0156C28.9797 41.0156 31.4281 43.4641 31.4281 46.4844C31.4281 49.5047 28.9797 51.9531 25.9594 51.9531Z" fill="#A5DDFF"/>
<path d="M62.4175 51.9531C59.3972 51.9531 56.9487 49.5047 56.9487 46.4844C56.9487 43.4641 59.3972 41.0156 62.4175 41.0156C65.4378 41.0156 67.8862 43.4641 67.8862 46.4844C67.8862 49.5047 65.4378 51.9531 62.4175 51.9531Z" fill="#A5DDFF"/>
<path d="M44.1885 51.9531C41.1682 51.9531 38.7197 49.5047 38.7197 46.4844C38.7197 43.4641 41.1682 41.0156 44.1885 41.0156C47.2088 41.0156 49.6572 43.4641 49.6572 46.4844C49.6572 49.5047 47.2088 51.9531 44.1885 51.9531Z" fill="#A5DDFF"/>
<path d="M80.6469 51.9531C77.6265 51.9531 75.1781 49.5047 75.1781 46.4844C75.1781 43.4641 77.6265 41.0156 80.6469 41.0156C83.6672 41.0156 86.1156 43.4641 86.1156 46.4844C86.1156 49.5047 83.6672 51.9531 80.6469 51.9531Z" fill="#FE6663"/>
<path d="M17.6719 87.5C25.4384 87.5 31.7344 81.204 31.7344 73.4375C31.7344 65.671 25.4384 59.375 17.6719 59.375C9.90537 59.375 3.60938 65.671 3.60938 73.4375C3.60938 81.204 9.90537 87.5 17.6719 87.5Z" fill="#FE6663"/>
<path d="M30.5338 18.8477C28.3763 18.8477 26.6275 17.0988 26.6275 14.9414V5.85938C26.6275 3.70195 28.3763 1.95312 30.5338 1.95312C32.6912 1.95312 34.44 3.70195 34.44 5.85938V14.9414C34.44 17.0988 32.6912 18.8477 30.5338 18.8477Z" fill="white"/>
<path d="M75.0651 18.8477C72.9076 18.8477 71.1588 17.0988 71.1588 14.9414V5.85938C71.1588 3.70195 72.9076 1.95312 75.0651 1.95312C77.2225 1.95312 78.9713 3.70195 78.9713 5.85938V14.9414C78.9713 17.0988 77.2225 18.8477 75.0651 18.8477Z" fill="white"/>
<path d="M90.2344 8.59375H80.9244V5.85938C80.9244 2.62852 78.2959 0 75.065 0C71.8342 0 69.2057 2.62852 69.2057 5.85938V8.59375H36.3932V5.85938C36.3932 2.62852 33.7646 0 30.5338 0C27.3029 0 24.6744 2.62852 24.6744 5.85938V8.66602C24.5084 8.62012 24.3344 8.59375 24.1537 8.59375H16.3717C10.9869 8.59375 6.60606 12.9746 6.60606 18.3594V51.6275C6.60606 52.7063 7.48066 53.5807 8.55918 53.5807C9.6377 53.5807 10.5123 52.7063 10.5123 51.6275V28.7109H80.9244C82.0029 28.7109 82.8775 27.8365 82.8775 26.7578C82.8775 25.6791 82.0029 24.8047 80.9244 24.8047H10.5123V18.3594C10.5123 15.1285 13.1408 12.5 16.3717 12.5H24.1537C24.3344 12.5 24.5084 12.4734 24.6744 12.4277V14.9414C24.6744 18.1723 27.3029 20.8008 30.5338 20.8008C33.7646 20.8008 36.3932 18.1723 36.3932 14.9414V12.5H69.2057V14.9414C69.2057 18.1723 71.8342 20.8008 75.065 20.8008C78.2959 20.8008 80.9244 18.1723 80.9244 14.9414V12.5H90.2344C93.4652 12.5 96.0938 15.1285 96.0938 18.3594V92.577C96.0938 94.516 94.5162 96.0938 92.577 96.0938C90.6377 96.0938 89.0602 94.516 89.0602 92.577V87.5244C89.0602 86.4457 88.1855 85.5713 87.107 85.5713H64.3881C63.3096 85.5713 62.435 86.4457 62.435 87.5244C62.435 88.6031 63.3096 89.4775 64.3881 89.4775H85.1539V92.577C85.1539 93.8486 85.4758 95.0463 86.0416 96.0938H7.42188C5.4834 96.0938 3.90625 94.5166 3.90625 92.5781V89.4775H47.6221C48.7006 89.4775 49.5752 88.6031 49.5752 87.5244C49.5752 86.4457 48.7006 85.5713 47.6221 85.5713H28.1072C31.5201 82.632 33.6873 78.2844 33.6873 73.4375C33.6873 64.6064 26.5027 57.4219 17.6717 57.4219C8.84062 57.4219 1.65605 64.6064 1.65605 73.4375C1.65605 78.2844 3.82324 82.632 7.23613 85.5713H1.95312C0.874609 85.5713 0 86.4457 0 87.5244V92.5781C0 96.6705 3.32949 100 7.42188 100H92.577C96.6699 100 100 96.6701 100 92.577V18.3594C100 12.9746 95.6191 8.59375 90.2344 8.59375ZM32.4869 14.9414C32.4869 16.0184 31.6107 16.8945 30.5338 16.8945C29.4568 16.8945 28.5807 16.0184 28.5807 14.9414V5.85938C28.5807 4.78242 29.4568 3.90625 30.5338 3.90625C31.6107 3.90625 32.4869 4.78242 32.4869 5.85938V14.9414ZM77.0182 14.9414C77.0182 16.0184 76.142 16.8945 75.065 16.8945C73.9881 16.8945 73.1119 16.0184 73.1119 14.9414V5.85938C73.1119 4.78242 73.9881 3.90625 75.065 3.90625C76.142 3.90625 77.0182 4.78242 77.0182 5.85938V14.9414ZM5.5623 73.4375C5.5623 66.7604 10.9945 61.3281 17.6717 61.3281C24.3488 61.3281 29.7811 66.7604 29.7811 73.4375C29.7811 80.1146 24.3488 85.5469 17.6717 85.5469C10.9945 85.5469 5.5623 80.1146 5.5623 73.4375Z" fill="black"/>
<path d="M90.0859 28.7109C90.5996 28.7109 91.1035 28.502 91.4666 28.1387C91.8299 27.7754 92.0391 27.2715 92.0391 26.7578C92.0391 26.2441 91.8301 25.7402 91.4666 25.377C91.1035 25.0137 90.5996 24.8047 90.0859 24.8047C89.5721 24.8047 89.0684 25.0137 88.7051 25.377C88.3418 25.7402 88.1328 26.2441 88.1328 26.7578C88.1328 27.2715 88.3416 27.7754 88.7051 28.1387C89.0686 28.502 89.5721 28.7109 90.0859 28.7109Z" fill="black"/>
<path d="M55.5684 86.1426C55.2051 86.5078 54.9961 87.0098 54.9961 87.5234C54.9961 88.0391 55.2049 88.541 55.5684 88.9062C55.9316 89.2695 56.4355 89.4766 56.9492 89.4766C57.4629 89.4766 57.9668 89.2695 58.3299 88.9062C58.6932 88.541 58.9023 88.0371 58.9023 87.5234C58.9023 87.0098 58.6934 86.5078 58.3299 86.1426C57.9668 85.7793 57.4629 85.5723 56.9492 85.5723C56.4355 85.5723 55.9316 85.7793 55.5684 86.1426Z" fill="black"/>
<path d="M44.1885 74.2188C48.2809 74.2188 51.6104 70.8893 51.6104 66.7969C51.6104 62.7045 48.2809 59.375 44.1885 59.375C40.0961 59.375 36.7666 62.7045 36.7666 66.7969C36.7666 70.8893 40.0961 74.2188 44.1885 74.2188ZM44.1885 63.2812C46.127 63.2812 47.7041 64.8584 47.7041 66.7969C47.7041 68.7354 46.127 70.3125 44.1885 70.3125C42.25 70.3125 40.6729 68.7354 40.6729 66.7969C40.6729 64.8584 42.25 63.2812 44.1885 63.2812Z" fill="black"/>
<path d="M62.4176 74.2188C66.51 74.2188 69.8395 70.8893 69.8395 66.7969C69.8395 62.7045 66.51 59.375 62.4176 59.375C58.3252 59.375 54.9957 62.7045 54.9957 66.7969C54.9957 70.8893 58.3252 74.2188 62.4176 74.2188ZM62.4176 63.2812C64.3561 63.2812 65.9332 64.8584 65.9332 66.7969C65.9332 68.7354 64.3561 70.3125 62.4176 70.3125C60.4791 70.3125 58.902 68.7354 58.902 66.7969C58.902 64.8584 60.4791 63.2812 62.4176 63.2812Z" fill="black"/>
<path d="M80.6469 74.2188C84.7392 74.2188 88.0687 70.8893 88.0687 66.7969C88.0687 62.7045 84.7392 59.375 80.6469 59.375C76.5545 59.375 73.225 62.7045 73.225 66.7969C73.225 70.8893 76.5545 74.2188 80.6469 74.2188ZM80.6469 63.2812C82.5853 63.2812 84.1625 64.8584 84.1625 66.7969C84.1625 68.7354 82.5853 70.3125 80.6469 70.3125C78.7084 70.3125 77.1312 68.7354 77.1312 66.7969C77.1312 64.8584 78.7084 63.2812 80.6469 63.2812Z" fill="black"/>
<path d="M33.3812 46.4844C33.3812 42.392 30.0517 39.0625 25.9594 39.0625C21.867 39.0625 18.5375 42.392 18.5375 46.4844C18.5375 50.5768 21.867 53.9062 25.9594 53.9062C30.0517 53.9062 33.3812 50.5768 33.3812 46.4844ZM22.4437 46.4844C22.4437 44.5459 24.0209 42.9688 25.9594 42.9688C27.8978 42.9688 29.475 44.5459 29.475 46.4844C29.475 48.4229 27.8978 50 25.9594 50C24.0209 50 22.4437 48.4229 22.4437 46.4844Z" fill="black"/>
<path d="M62.4176 53.9062C66.51 53.9062 69.8395 50.5768 69.8395 46.4844C69.8395 42.392 66.51 39.0625 62.4176 39.0625C58.3252 39.0625 54.9957 42.392 54.9957 46.4844C54.9957 50.5768 58.3252 53.9062 62.4176 53.9062ZM62.4176 42.9688C64.3561 42.9688 65.9332 44.5459 65.9332 46.4844C65.9332 48.4229 64.3561 50 62.4176 50C60.4791 50 58.902 48.4229 58.902 46.4844C58.902 44.5459 60.4791 42.9688 62.4176 42.9688Z" fill="black"/>
<path d="M80.6469 53.9062C84.7392 53.9062 88.0687 50.5768 88.0687 46.4844C88.0687 42.392 84.7392 39.0625 80.6469 39.0625C76.5545 39.0625 73.225 42.392 73.225 46.4844C73.225 50.5768 76.5545 53.9062 80.6469 53.9062ZM80.6469 42.9688C82.5853 42.9688 84.1625 44.5459 84.1625 46.4844C84.1625 48.4229 82.5853 50 80.6469 50C78.7084 50 77.1312 48.4229 77.1312 46.4844C77.1312 44.5459 78.7084 42.9688 80.6469 42.9688Z" fill="black"/>
<path d="M44.1885 53.9062C48.2809 53.9062 51.6104 50.5768 51.6104 46.4844C51.6104 42.392 48.2809 39.0625 44.1885 39.0625C40.0961 39.0625 36.7666 42.392 36.7666 46.4844C36.7666 50.5768 40.0961 53.9062 44.1885 53.9062ZM44.1885 42.9688C46.127 42.9688 47.7041 44.5459 47.7041 46.4844C47.7041 48.4229 46.127 50 44.1885 50C42.25 50 40.6729 48.4229 40.6729 46.4844C40.6729 44.5459 42.25 42.9688 44.1885 42.9688Z" fill="black"/>
<path d="M14.1257 79.1815C14.4922 79.5477 14.9888 79.7535 15.5068 79.7535C16.0248 79.7535 16.5214 79.5477 16.8879 79.1815L24.6296 71.4397C25.3923 70.677 25.3923 69.4402 24.6296 68.6776C23.8668 67.9149 22.6304 67.9149 21.8673 68.6776L15.5068 75.0383L13.3332 72.8647C12.5703 72.102 11.3339 72.102 10.5709 72.8647C9.80817 73.6274 9.80817 74.8641 10.5709 75.627L14.1257 79.1815Z" fill="black"/>
</g>
</svg>
