<svg width="25" height="41" viewBox="0 0 25 41" fill="none" xmlns="http://www.w3.org/2000/svg">
<path fill-rule="evenodd" clip-rule="evenodd" d="M18.4585 35.3946H2.33608H1.53946V40.1993H19.2549V35.3946H18.4585Z" fill="#FF9346"/>
<path fill-rule="evenodd" clip-rule="evenodd" d="M0.800935 27.0763C0.800935 29.8386 2.3245 32.6008 2.33611 35.3629V35.3945H18.4584V35.3629C18.4799 29.8265 24.1575 29.5026 23.2091 24.1143C22.7499 21.5055 23.1509 20.2929 23.2031 19.4365C23.2768 18.2264 20.9614 17.601 19.6045 18.9396C19.4637 19.0785 19.338 19.2203 19.2258 19.3652V7.36741C19.2258 6.04621 18.1895 4.96507 16.9227 4.96507C15.656 4.96507 14.6483 6.04645 14.6196 7.36741V3.20312C14.6196 1.88191 13.5831 0.800782 12.3165 0.800782C11.0499 0.800782 10.0294 1.88191 10.0133 3.20312L9.98107 5.86083C9.98107 4.53962 8.94462 3.45849 7.67795 3.45849C6.41144 3.45849 5.3918 4.53962 5.37483 5.86083L5.30083 11.6393C5.26152 10.3964 4.30899 9.38105 3.11943 9.38105C1.92971 9.38105 0.983272 10.399 0.956286 11.6424C0.830403 17.4471 0.800935 14.5138 0.800935 20.3198V27.0763Z" fill="#FFDCD5"/>
<path d="M23.9978 23.9755C23.662 22.0683 23.8131 20.9763 23.9234 20.1789C23.9572 19.9355 23.9889 19.7055 24.0023 19.4852C24.0493 18.7133 23.5898 18.0308 22.7732 17.6598C22.0428 17.328 20.9891 17.2562 20.0264 17.6915V7.36741C20.0264 5.60121 18.634 4.16429 16.9225 4.16429C16.3757 4.16429 15.8643 4.30939 15.4201 4.56476V3.20312C15.4201 1.43692 14.0277 0 12.3162 0C10.6624 0 9.29448 1.37198 9.21657 3.08076C8.76269 2.81218 8.23754 2.65771 7.67787 2.65771C5.98895 2.65771 4.59655 4.09006 4.57405 5.85057L4.53433 8.95135C4.11368 8.71448 3.63209 8.58035 3.11936 8.58035C1.49449 8.58035 0.192587 9.91773 0.155511 11.6251C0.106423 13.8899 0.0715093 14.8348 0.0483668 15.46C0.0111305 16.4667 0 16.7705 0 20.3199V27.0764C0 28.5716 0.405034 30.0344 0.796695 31.4492C1.09771 32.5365 1.38487 33.5757 1.49137 34.5961C1.0716 34.6211 0.738639 34.9684 0.738639 35.3945V40.1992C0.738639 40.6415 1.09723 41 1.53942 41H19.2548C19.697 41 20.0556 40.6415 20.0556 40.1992V35.3945C20.0556 34.9697 19.7246 34.6231 19.3066 34.5964C19.5345 32.7186 20.5601 31.5825 21.6395 30.3885C23.0076 28.8749 24.5581 27.1596 23.9978 23.9755V23.9755ZM17.6953 34.5937H14.0003C13.5582 34.5937 13.1996 34.9523 13.1996 35.3945C13.1996 35.8368 13.5582 36.1953 14.0003 36.1953H18.454V39.3984H2.34028V36.1953H6.79333C7.23552 36.1953 7.59411 35.8368 7.59411 35.3945C7.59411 34.9523 7.23552 34.5937 6.79333 34.5937H3.09966C2.99147 33.3766 2.66171 32.1828 2.34028 31.0219C1.96047 29.6499 1.60164 28.354 1.60164 27.0764V20.3199C1.60164 16.8 1.61261 16.503 1.64896 15.5191C1.67227 14.8891 1.70742 13.9368 1.75691 11.6598C1.77461 10.8449 2.38584 10.1819 3.11952 10.1819C3.85271 10.1819 4.47019 10.8427 4.49982 11.6565L4.4155 18.2389C4.40981 18.6811 4.76376 19.0442 5.20595 19.0498H5.21644C5.6539 19.0498 6.01129 18.698 6.0169 18.2593L6.17553 5.87099C6.1869 4.98221 6.86092 4.25918 7.67795 4.25918C8.50604 4.25918 9.17981 4.97724 9.18021 5.85994L9.03359 17.9479C9.02823 18.3901 9.38233 18.7529 9.8246 18.7583H9.83453C10.2722 18.7583 10.6297 18.4062 10.635 17.9672L10.8139 3.21273C10.8248 2.32434 11.4988 1.60156 12.3164 1.60156C13.1448 1.60156 13.8187 2.32002 13.8187 3.20312V7.35724L13.5886 17.9403C13.579 18.3824 13.9296 18.7486 14.3717 18.7583C14.3777 18.7584 14.3836 18.7584 14.3895 18.7584C14.8237 18.7584 15.1803 18.4113 15.1898 17.975L15.4201 7.38479C15.4395 6.49216 16.1135 5.76585 16.9226 5.76585C17.751 5.76585 18.425 6.48431 18.425 7.36741V19.1027C17.6254 20.2672 17.5074 21.5696 17.5018 22.9967C17.209 23.1712 16.4608 23.2687 15.8919 23.3429C13.5374 23.6498 9.59646 24.1636 9.59646 30.5898C9.59646 31.032 9.95505 31.3905 10.3972 31.3905C10.8394 31.3905 11.198 31.032 11.198 30.5898C11.198 28.3172 11.7222 26.8044 12.8006 25.9649C13.7322 25.2396 14.9896 25.0757 16.099 24.9311C17.3151 24.7726 18.4636 24.6228 18.9964 23.7001C19.0674 23.5771 19.1044 23.4375 19.1037 23.2956C19.0954 21.7012 19.1667 20.4964 20.1669 19.5098C20.7415 18.9428 21.5973 18.8848 22.1108 19.118C22.2881 19.1985 22.4086 19.3096 22.4038 19.388C22.3941 19.5469 22.3677 19.7382 22.337 19.9595C22.2191 20.8112 22.0411 22.0982 22.4205 24.2533C22.8452 26.6664 21.7888 27.8351 20.4513 29.3146C19.2641 30.6279 17.9331 32.1013 17.6953 34.5937V34.5937Z" fill="black"/>
<path d="M10.3971 34.5937H10.3965C9.95429 34.5937 9.59602 34.9523 9.59602 35.3945C9.59602 35.8368 9.95485 36.1953 10.3971 36.1953C10.8394 36.1953 11.1979 35.8368 11.1979 35.3945C11.1979 34.9523 10.8394 34.5937 10.3971 34.5937V34.5937Z" fill="black"/>
</svg>
